<?xml version="1.0" encoding="UTF-8"?>
<svg id="Layer_2" data-name="Layer 2" xmlns="http://www.w3.org/2000/svg" viewBox="0 0 322.45 275.58">
  <defs>
    <style>
      .cls-1, .cls-2 {
        fill: none;
        stroke: #fff;
        stroke-miterlimit: 10;
        stroke-width: 8px;
      }

      .cls-2 {
        stroke-linecap: round;
      }
    </style>
  </defs>
  <g id="Layer_1-2" data-name="Layer 1">
    <g>
      <path class="cls-1" d="m293.48,44.71v45.69c0,3.07-.64,6.11-1.9,8.91-4.87,10.89-9.73,21.77-14.59,32.66-11.37,25.43-22.73,50.86-34.09,76.28-1.52,3.4-6.35,3.4-7.86,0-16.23-36.31-32.46-72.63-48.69-108.94-.4-.89-.74-1.81-1-2.74-.6-2-.9-4.08-.9-6.17v-45.69c0-7.8,4.16-15.01,10.92-18.91l32.68-18.87c6.75-3.9,15.08-3.9,21.84,0l32.67,18.87c6.76,3.9,10.92,11.11,10.92,18.91Z"/>
      <path class="cls-2" d="m309.92,271.57h-94.85l1.89-8.86c.91-4.25-.52-8.67-3.75-11.59l-21.62-19.47c-3.23-2.92-4.66-7.33-3.76-11.59l6.13-28.77c.91-4.25-.53-8.67-3.76-11.58l-21.84-19.69c-3.23-2.91-7.78-3.88-11.92-2.53l-27.97,9.07c-4.14,1.35-8.68.38-11.92-2.54l-20.97-18.89c-3.23-2.92-4.66-7.34-3.76-11.59l6.13-28.76c.61-2.83.18-5.74-1.13-8.22h88.53c.26.93.6,1.85,1,2.74,16.23,36.31,32.46,72.63,48.69,108.94,1.51,3.4,6.34,3.4,7.86,0,11.36-25.42,22.72-50.85,34.09-76.28,13.68,42.83,27.36,85.67,41.04,128.5,1.76,5.49-2.34,11.11-8.11,11.11Z"/>
      <path class="cls-1" d="m275.66,81.39v-30.14c0-3.78-2.02-7.28-5.29-9.17l-26.1-15.07c-3.28-1.89-7.31-1.89-10.59,0l-26.1,15.07c-3.28,1.89-5.29,5.39-5.29,9.17v30.14c0,3.78,2.02,7.28,5.29,9.17l26.1,15.07c3.28,1.89,7.31,1.89,10.59,0l26.1-15.07c3.28-1.89,5.29-5.39,5.29-9.17Z"/>
      <path class="cls-2" d="m216.97,262.72l-1.89,8.86H12.52c-5.76,0-9.86-5.62-8.11-11.11,12.14-38,24.27-76,36.42-114,4.68-14.66,9.36-29.32,14.05-43.98,1.12-3.53,4.4-5.92,8.11-5.92h33.84c1.31,2.48,1.74,5.39,1.13,8.22l-6.13,28.76c-.9,4.25.53,8.67,3.76,11.59l20.97,18.89c3.24,2.92,7.78,3.89,11.92,2.54l27.97-9.07c4.14-1.35,8.69-.38,11.92,2.53l21.84,19.69c3.23,2.91,4.67,7.33,3.76,11.58l-6.13,28.77c-.9,4.26.53,8.67,3.76,11.59l21.62,19.47c3.23,2.92,4.66,7.34,3.75,11.59Z"/>
      <path class="cls-2" d="m238.97,43.04c6.72,3.88,13.44,7.76,20.16,11.64"/>
      <path class="cls-2" d="m259.13,77.96c-6.72,3.88-13.44,7.76-20.16,11.64"/>
      <path class="cls-2" d="m218.81,54.68v23.28"/>
      <path class="cls-2" d="m180.95,188.63c-7.28-6.56-14.56-13.13-21.84-19.69"/>
      <path class="cls-2" d="m126.03,155.14c-7.28-6.56-14.56-13.13-21.84-19.69"/>
    </g>
  </g>
</svg>